PathFileType	4	(X/Y/Z)	D:\telocate\uwb07-Unnamed.trc
DataRate	CameraRate	NumFrames	NumMarkers	Units	OrigDataRate	OrigDataStartFrame	OrigNumFrames
100.00	100.00	     240	0	mm	100.00	5788	     23149
Frame#	Time	
		

5788	57.870				-738.28302	-1278.90308	1858.01477	
5789	57.880				-738.00708	-1284.99585	1857.02307	
5790	57.890				-737.77820	-1291.54614	1855.96802	
5791	57.900				-735.00446	-1298.14307	1854.93127	
5792	57.910				-735.11279	-1304.51514	1853.15698	
5793	57.920				-734.70581	-1310.61108	1851.79688	
5794	57.930				-734.18726	-1317.46570	1850.45483	
5795	57.940				-734.09680	-1323.55103	1848.90125	
5796	57.950				-733.12506	-1330.15002	1847.51086	
5797	57.960				-732.54614	-1336.67493	1846.41699	
5798	57.970				-731.90057	-1343.13306	1844.85632	
5799	57.980				-730.72723	-1349.42871	1843.55872	
5800	57.990				-729.81995	-1355.12756	1842.00659	
5801	58.000				-728.48358	-1361.62878	1839.96118	
5802	58.010				-727.35712	-1367.56677	1837.81165	
5803	58.020				-725.49127	-1373.99438	1835.52026	
5804	58.030				-724.28308	-1379.33105	1833.67419	
5805	58.040				-723.27441	-1385.12854	1831.87573	
5806	58.050				-721.82184	-1390.98535	1829.88062	
5807	58.060				-721.20508	-1395.92163	1827.99109	
5808	58.070				-720.07654	-1401.69824	1826.22876	
5809	58.080				-716.65881	-1407.09167	1823.89673	
5810	58.090				-714.97253	-1411.99976	1821.88245	
5811	58.100				-713.49640	-1416.57227	1819.84937	
5812	58.110				-711.60297	-1421.87048	1817.65369	
5813	58.120				-711.95355	-1426.42712	1815.48206	
5814	58.130				-709.45007	-1431.40417	1812.63281	
5815	58.140				-707.11462	-1436.21765	1810.17041	
5816	58.150				-705.08350	-1440.67444	1807.60437	
5817	58.160				-703.79761	-1445.59399	1804.73132	
5818	58.170				-700.99475	-1450.05542	1801.93872	
5819	58.180				-698.96667	-1454.55481	1799.31555	
5820	58.190				-696.17236	-1459.28882	1796.24792	
5821	58.200				-694.00574	-1463.57983	1793.30505	
5822	58.210				-692.59760	-1467.94141	1790.14111	
5823	58.220				-690.49573	-1472.37732	1787.14197	
5824	58.230				-688.69250	-1476.94275	1783.89270	
5825	58.240				-685.91040	-1481.33728	1780.51697	
5826	58.250				-683.34216	-1485.85120	1777.41101	
5827	58.260				-680.51813	-1490.62830	1773.93347	
5828	58.270				-677.87744	-1495.23462	1770.18237	
5829	58.280				-675.87946	-1500.24414	1767.01550	
5830	58.290				-673.60266	-1504.54236	1763.66711	
5831	58.300				-671.66675	-1508.63660	1760.22461	
5832	58.310				-667.10999	-1513.88501	1756.80859	
5833	58.320				-664.49298	-1518.40771	1753.17517	
5834	58.330				-663.69794	-1522.46545	1749.72668	
5835	58.340				-661.24255	-1528.22852	1746.44666	
5836	58.350				-657.81213	-1532.57922	1742.57776	
5837	58.360				-655.75275	-1537.60706	1738.91357	
5838	58.370				-653.89801	-1542.15356	1735.39307	
5839	58.380				-650.83545	-1547.12683	1731.75085	
5840	58.390				-648.80389	-1552.23926	1728.02502	
5841	58.400				-648.26807	-1556.82043	1724.63354	
5842	58.410				-644.33234	-1561.51880	1720.69153	
5843	58.420				-643.28528	-1566.10901	1717.32104	
5844	58.430				-641.21240	-1570.39368	1713.17053	
5845	58.440				-639.34790	-1575.27136	1709.76514	
5846	58.450				-637.37610	-1579.20593	1705.92810	
5847	58.460				-634.73950	-1583.62268	1702.03589	
5848	58.470				-632.49255	-1588.98193	1698.68420	
5849	58.480				-629.84149	-1592.66199	1694.77844	
5850	58.490				-627.93457	-1596.83423	1690.94275	
5851	58.500				-626.47107	-1601.59570	1687.47559	
5852	58.510				-624.65991	-1604.62012	1683.44727	
5853	58.520				-621.17401	-1609.23682	1679.52747	
5854	58.530				-619.12036	-1613.56665	1675.78784	
5855	58.540				-616.63470	-1617.00085	1671.35400	
5856	58.550				-615.89954	-1621.08582	1667.51343	
5857	58.560				-613.35321	-1625.82214	1663.62073	
5858	58.570				-609.76489	-1629.60864	1659.46155	
5859	58.580				-606.48480	-1633.96863	1655.51953	
5860	58.590				-604.53864	-1638.22949	1651.86255	
5861	58.600				-601.11218	-1642.33105	1648.25964	
5862	58.610				-598.85535	-1646.64246	1644.61829	
5863	58.620				-595.83539	-1651.29907	1641.14941	
5864	58.630				-592.94647	-1655.67798	1637.58508	
5865	58.640				-591.24377	-1660.67822	1634.47314	
5866	58.650				-588.78845	-1664.85522	1630.56323	
5867	58.660				-585.51306	-1669.55249	1627.07751	
5868	58.670				-582.03717	-1673.87988	1623.45898	
5869	58.680				-578.96191	-1678.89697	1620.15576	
5870	58.690				-575.21448	-1683.28821	1616.73364	
5871	58.700				-572.47357	-1687.57642	1613.31311	
5872	58.710				-569.89990	-1692.56677	1610.29980	
5873	58.720				-564.37628	-1697.24072	1606.79968	
5874	58.730				-560.42773	-1701.50952	1603.05945	
5875	58.740				-558.68573	-1706.94055	1600.00171	
5876	58.750				-553.50879	-1711.25977	1596.19043	
5877	58.760				-550.12500	-1715.69580	1592.68762	
5878	58.770				-547.26331	-1720.19043	1589.30603	
5879	58.780				-541.82434	-1725.35706	1585.88867	
5880	58.790				-538.45264	-1730.31885	1583.13708	
5881	58.800				-535.77850	-1734.33191	1579.70715	
5882	58.810				-532.58490	-1739.36511	1577.28674	
5883	58.820				-529.17438	-1744.21887	1574.17065	
5884	58.830				-524.81561	-1748.99927	1571.11633	
5885	58.840				-521.07166	-1754.16602	1568.40356	
5886	58.850				-518.12738	-1759.36353	1565.45959	
5887	58.860				-514.96118	-1764.68494	1562.46204	
5888	58.870				-510.64053	-1770.16821	1559.96472	
5889	58.880				-507.01468	-1775.23694	1556.88428	
5890	58.890				-503.99158	-1779.54333	1553.87939	
5891	58.900				-502.38809	-1785.58667	1551.08374	
5892	58.910				-498.39642	-1790.12585	1547.68372	
5893	58.920				-494.43002	-1795.44861	1544.31665	
5894	58.930				-491.46478	-1800.91895	1541.24854	
5895	58.940				-489.57928	-1806.93201	1538.74036	
5896	58.950				-485.56781	-1812.02869	1535.50806	
5897	58.960				-484.22195	-1818.76807	1533.31262	
5898	58.970				-479.71167	-1823.75281	1530.66650	
5899	58.980				-476.91345	-1829.95300	1528.05981	
5900	58.990				-473.83078	-1834.65417	1525.05212	
5901	59.000				-468.77261	-1840.89453	1522.05212	
5902	59.010				-467.15076	-1845.87488	1519.41443	
5903	59.020				-463.57034	-1852.21973	1516.78674	
5904	59.030				-460.48331	-1857.43811	1514.67310	
5905	59.040				-458.01035	-1863.90942	1512.67249	
5906	59.050				-455.84204	-1869.96558	1510.99194	
5907	59.060				-451.76736	-1875.79834	1509.38635	
5908	59.070				-449.32361	-1881.49805	1508.02722	
5909	59.080				-447.00110	-1887.65161	1506.56641	
5910	59.090				-444.79813	-1893.66846	1505.05420	
5911	59.100				-443.98572	-1900.00818	1504.03101	
5912	59.110				-441.28061	-1905.58801	1503.09766	
5913	59.120				-438.30801	-1911.64197	1501.84460	
5914	59.130				-436.11957	-1917.48474	1500.53906	
5915	59.140				-433.86700	-1923.44861	1499.60767	
5916	59.150				-432.26505	-1930.06934	1498.77649	
5917	59.160				-429.33670	-1935.18726	1497.46558	
5918	59.170				-426.90024	-1941.57983	1496.84656	
5919	59.180				-425.12454	-1947.22974	1495.37170	
5920	59.190				-424.98456	-1952.91309	1494.18005	
5921	59.200				-422.40842	-1958.89648	1493.37561	
5922	59.210				-421.01413	-1964.13599	1491.92297	
5923	59.220				-419.26886	-1969.18420	1490.45679	
5924	59.230				-418.05859	-1975.16333	1489.76477	
5925	59.240				-416.81476	-1979.90491	1488.83447	
5926	59.250				-415.10590	-1985.96912	1488.23438	
5927	59.260				-413.71350	-1991.09802	1486.77808	
5928	59.270				-412.02658	-1996.25183	1485.70972	
5929	59.280				-410.39920	-2000.85278	1483.98621	
5930	59.290				-408.75409	-2005.85352	1483.20654	
5931	59.300				-406.88538	-2011.04810	1481.77930	
5932	59.310				-404.98334	-2016.48535	1480.36401	
5933	59.320				-403.13715	-2021.27429	1479.03650	
5934	59.330				-401.83716	-2026.74695	1477.45313	
5935	59.340				-400.00784	-2031.75806	1476.28430	
5936	59.350				-398.70444	-2036.71460	1474.58032	
5937	59.360				-397.37048	-2042.08020	1473.35156	
5938	59.370				-395.79681	-2047.07007	1471.68201	
5939	59.380				-392.97946	-2051.96460	1469.79150	
5940	59.390				-391.21109	-2056.53931	1468.04004	
5941	59.400				-389.86743	-2062.40063	1466.54529	
5942	59.410				-388.36328	-2066.89966	1464.84998	
5943	59.420				-386.59573	-2072.21021	1463.01538	
5944	59.430				-385.59470	-2077.36963	1461.73669	
5945	59.440				-384.19910	-2082.67896	1459.82068	
5946	59.450				-384.69025	-2088.16577	1458.23181	
5947	59.460				-382.84219	-2093.61865	1456.33093	
5948	59.470				-381.37976	-2098.58301	1454.51672	
5949	59.480				-379.61331	-2103.91797	1452.84216	
5950	59.490				-378.09454	-2109.39648	1451.30200	
5951	59.500				-376.13867	-2113.78369	1449.58325	
5952	59.510				-373.97806	-2119.21729	1447.67188	
5953	59.520				-372.22586	-2124.00098	1445.64429	
5954	59.530				-370.86484	-2128.79150	1444.04150	
5955	59.540				-368.80325	-2133.20020	1442.05005	
5956	59.550				-369.90512	-2138.38184	1440.41138	
5957	59.560				-366.32126	-2142.89526	1438.42188	
5958	59.570				-365.49939	-2146.61377	1436.88989	
5959	59.580				-364.28571	-2151.76416	1435.85876	
5960	59.590				-363.26312	-2155.88721	1434.75220	
5961	59.600				-361.99661	-2160.52588	1433.12854	
5962	59.610				-360.74640	-2165.18115	1432.24402	
5963	59.620				-359.29150	-2169.01807	1430.92834	
5964	59.630				-357.91449	-2173.83032	1429.71912	
5965	59.640				-354.37170	-2178.53540	1428.77039	
5966	59.650				-352.90897	-2183.17871	1427.62317	
5967	59.660				-350.77841	-2188.20850	1426.50964	
5968	59.670				-350.77487	-2192.23926	1425.24390	
5969	59.680				-347.04199	-2198.28394	1424.56531	
5970	59.690				-346.37643	-2202.69580	1423.16785	
5971	59.700				-343.80988	-2208.49414	1422.16284	
5972	59.710				-342.33649	-2212.35547	1420.87341	
5973	59.720				-339.22745	-2218.17212	1419.51819	
5974	59.730				-337.09021	-2223.15186	1418.36365	
5975	59.740				-335.72430	-2227.36182	1417.07300	
5976	59.750				-333.79889	-2232.01978	1416.48535	
5977	59.760				-328.79977	-2237.79224	1414.88245	
5978	59.770				-326.54865	-2242.95923	1414.09143	
5979	59.780				-324.21106	-2248.00220	1413.72217	
5980	59.790				-321.02158	-2253.70386	1413.08252	
5981	59.800				-318.73361	-2258.64746	1412.55725	
5982	59.810				-317.55789	-2263.26563	1412.07593	
5983	59.820				-314.95575	-2268.01611	1411.98511	
5984	59.830				-311.43192	-2272.28589	1411.48071	
5985	59.840				-308.40997	-2275.49902	1411.17590	
5986	59.850				-304.70035	-2280.06543	1410.81177	
5987	59.860				-301.72675	-2283.20508	1410.25195	
5988	59.870				-298.98016	-2286.55542	1409.81372	
5989	59.880				-297.45459	-2289.15869	1409.95117	
5990	59.890				-295.08228	-2291.79321	1409.34924	
5991	59.900				-292.03543	-2295.51660	1409.17590	
5992	59.910				-287.81107	-2298.52954	1408.72510	
5993	59.920				-288.28867	-2299.95630	1408.22949	
5994	59.930				-285.24442	-2303.26514	1407.57446	
5995	59.940				-283.46500	-2305.99854	1407.00085	
5996	59.950				-280.74487	-2308.38599	1405.71960	
5997	59.960				-277.32300	-2310.26465	1404.66626	
5998	59.970				-274.40298	-2313.23169	1404.50793	
5999	59.980				-270.52441	-2319.31152	1404.60950	
6000	59.990				-267.81155	-2320.05566	1403.67285	
6001	60.000				-261.18567	-2323.30371	1403.03931	
6002	60.010				-257.78824	-2325.04150	1402.31543	
6003	60.020				-254.36888	-2327.10620	1401.42468	
6004	60.030				-250.78969	-2328.41162	1400.01624	
6005	60.040				-248.40273	-2331.05981	1399.21155	
6006	60.050				-243.66875	-2333.00366	1398.18518	
6007	60.060				-238.43951	-2335.40405	1398.04736	
6008	60.070				-232.89508	-2336.84302	1396.79724	
6009	60.080				-229.56004	-2340.06714	1396.25012	
6010	60.090				-225.75856	-2343.20654	1395.44873	
6011	60.100				-222.44971	-2344.17114	1394.40759	
6012	60.110				-217.76572	-2347.45898	1394.18347	
6013	60.120				-209.78937	-2350.90918	1394.24414	
6014	60.130				-206.29018	-2352.62158	1392.69165	
6015	60.140				-200.95538	-2354.82861	1391.73376	
6016	60.150				-193.79729	-2356.15405	1391.42334	
6017	60.160				-188.75679	-2357.89282	1391.14246	
6018	60.170				-183.00084	-2358.31299	1389.91345	
6019	60.180				-179.57777	-2360.57983	1388.72400	
6020	60.190				-173.17389	-2361.34009	1387.53467	
6021	60.200				-166.99893	-2361.07861	1386.33984	
6022	60.210				-161.42844	-2362.73096	1385.70129	
6023	60.220				-157.36815	-2363.72388	1384.34167	
6024	60.230				-153.95107	-2363.37158	1383.25122	
6025	60.240				-145.91417	-2365.54810	1382.39478	
6026	60.250				-140.30588	-2365.72485	1381.36682	
6027	60.260				-136.58163	-2367.14575	1380.17310	
